<svg aria-hidden="true" style="position: absolute; width: 0; height: 0; overflow: hidden;" version="1.1" xmlns="http://www.w3.org/2000/svg" xmlns:xlink="http://www.w3.org/1999/xlink">
  <defs>
    <symbol id="icon-favorite" viewBox="0 0 32 32">
      <title>icon-favorite</title>
      <path d="M9 1h14c4.418 0 8 3.582 8 8v14c0 4.418-3.582 8-8 8h-14c-4.418 0-8-3.582-8-8v-14c0-4.418 3.582-8 8-8z"></path>
      <path d="M16 6.581l3.126 6.2 6.99 1-5.058 4.823 1.194 6.814-6.252-3.219-6.252 3.219 1.194-6.814-5.058-4.823 6.99-1 3.126-6.2z"></path>
    </symbol>
    <symbol id="icon-account" viewBox="0 0 12 12">
      <title>mail</title>
      <path d="M10.417 1.499c0.465 0 0.844 0.379 0.844 0.844v7.335c0 0.466-0.377 0.844-0.844 0.844h-8.825c-0.466 0-0.844-0.377-0.844-0.844v-7.335c0-0.466 0.377-0.844 0.844-0.844h8.825zM9.512 2.343h-7.010l3.225 2.663c0.080 0.082 0.188 0.128 0.302 0.128h0.002c0.116-0.001 0.224-0.047 0.304-0.131l0.016-0.018 3.161-2.641zM1.591 9.677h8.827v-6.99l-3.489 2.916c-0.238 0.24-0.554 0.373-0.893 0.374h-0.006c-0.338 0-0.652-0.13-0.891-0.367l-3.548-2.924v6.991z"></path>
    </symbol>
  </defs>
</svg>